<?xml version="1.0" encoding="UTF-8"?>
<svg width="262px" height="238px" viewBox="0 0 262 238" version="1.1" xmlns="http://www.w3.org/2000/svg" xmlns:xlink="http://www.w3.org/1999/xlink">
    <title>block</title>
    <defs>
        <path d="M7.6916556,-3.10752092e-16 L158.308344,3.10752092e-16 C160.982901,-1.80555915e-16 161.952759,0.278476833 162.930537,0.801398111 C163.908315,1.32431939 164.675681,2.09168511 165.198602,3.06946289 C165.721523,4.04724067 166,5.01709938 166,7.6916556 L166,134.308344 C166,136.982901 165.721523,137.952759 165.198602,138.930537 C164.675681,139.908315 163.908315,140.675681 162.930537,141.198602 C161.952759,141.721523 160.982901,142 158.308344,142 L7.6916556,142 C5.01709938,142 4.04724067,141.721523 3.06946289,141.198602 C2.09168511,140.675681 1.32431939,139.908315 0.801398111,138.930537 C0.278476833,137.952759 3.83818985e-16,136.982901 -6.60585131e-16,134.308344 L2.07168062e-16,7.6916556 C-1.2037061e-16,5.01709938 0.278476833,4.04724067 0.801398111,3.06946289 C1.32431939,2.09168511 2.09168511,1.32431939 3.06946289,0.801398111 C4.04724067,0.278476833 5.01709938,1.80555915e-16 7.6916556,-3.10752092e-16 Z" id="path-1"></path>
        <filter x="-50.6%" y="-42.3%" width="201.2%" height="218.3%" filterUnits="objectBoundingBox" id="filter-2">
            <feOffset dx="0" dy="24" in="SourceAlpha" result="shadowOffsetOuter1"></feOffset>
            <feGaussianBlur stdDeviation="24" in="shadowOffsetOuter1" result="shadowBlurOuter1"></feGaussianBlur>
            <feColorMatrix values="0 0 0 0 0.334635417   0 0 0 0 0.117122396   0 0 0 0 0  0 0 0 0.0818897192 0" type="matrix" in="shadowBlurOuter1"></feColorMatrix>
        </filter>
    </defs>
    <g id="Design" stroke="none" stroke-width="1" fill="none" fill-rule="evenodd">
        <g id="1_Home_Agency_1440" transform="translate(-439.000000, -4818.000000)" fill-rule="nonzero">
            <g id="pic" transform="translate(135.000000, 4709.000000)">
                <g id="block" transform="translate(352.000000, 133.000000)">
                    <g id="Rectangle">
                        <use fill="black" fill-opacity="1" filter="url(#filter-2)" xlink:href="#path-1"></use>
                        <use fill="#FFFFFF" xlink:href="#path-1"></use>
                    </g>
                    <circle id="Oval" fill="#F5DED1" cx="35" cy="34" r="20"></circle>
                    <path d="M17.5638852,79 L87.4361148,79 C88.3276335,79 88.6509198,79.0928256 88.9768457,79.2671327 C89.3027716,79.4414398 89.5585602,79.6972284 89.7328673,80.0231543 C89.9071744,80.3490802 90,80.6723665 90,81.5638852 L90,90.4361148 C90,91.3276335 89.9071744,91.6509198 89.7328673,91.9768457 C89.5585602,92.3027716 89.3027716,92.5585602 88.9768457,92.7328673 C88.6509198,92.9071744 88.3276335,93 87.4361148,93 L17.5638852,93 C16.6723665,93 16.3490802,92.9071744 16.0231543,92.7328673 C15.6972284,92.5585602 15.4414398,92.3027716 15.2671327,91.9768457 C15.0928256,91.6509198 15,91.3276335 15,90.4361148 L15,81.5638852 C15,80.6723665 15.0928256,80.3490802 15.2671327,80.0231543 C15.4414398,79.6972284 15.6972284,79.4414398 16.0231543,79.2671327 C16.3490802,79.0928256 16.6723665,79 17.5638852,79 Z" id="Rectangle" fill="#F5DED1"></path>
                    <path d="M18,101 L138,101 C139.656854,101 141,102.343146 141,104 C141,105.656854 139.656854,107 138,107 L18,107 C16.3431458,107 15,105.656854 15,104 C15,102.343146 16.3431458,101 18,101 Z" id="Rectangle" fill="#F5DED1"></path>
                    <path d="M18,113 L117,113 C118.656854,113 120,114.343146 120,116 C120,117.656854 118.656854,119 117,119 L18,119 C16.3431458,119 15,117.656854 15,116 C15,114.343146 16.3431458,113 18,113 Z" id="Rectangle" fill="#F5DED1"></path>
                </g>
            </g>
        </g>
    </g>
</svg>