<?xml version="1.0" encoding="UTF-8"?>
<svg width="122px" height="148px" viewBox="0 0 122 148" version="1.1" xmlns="http://www.w3.org/2000/svg" xmlns:xlink="http://www.w3.org/1999/xlink">
    <title>Combined Shape</title>
    <g id="Design" stroke="none" stroke-width="1" fill="none" fill-rule="evenodd">
        <g id="1_Home_Agency_1440" transform="translate(-587.000000, -4971.000000)" fill="#E7C4B2">
            <g id="pic" transform="translate(135.000000, 4709.000000)">
                <path d="M457.524,343.092 L457.544145,343.647098 C457.578873,344.422771 457.641383,345.197495 457.731676,345.969752 L457.757,346.177 L457.598606,346.205808 C456.349625,346.439037 455.112026,346.753896 453.89378,347.150385 L453.372883,347.325307 C447.07014,350.039513 441.872048,354.81716 438.628256,360.877317 C435.435326,367.066719 434.287854,374.113763 435.351673,381 L435.351673,381 L432.484662,381 L432.377332,380.376243 C431.840682,377.045024 431.876459,373.644657 432.484662,370.322658 C433.457814,362.949315 436.928133,356.135121 442.314413,351.02131 C446.527532,347.182796 451.623287,344.499619 457.109227,343.187803 L457.524,343.092 Z M461.973915,342.397303 C469.303681,341.326521 476.743112,343.415126 482.452562,348.146641 C486.993658,351.40834 489.231508,357.01791 488.186584,362.519985 C486.938029,365.146834 484.742622,367.201354 482.042989,368.269323 C478.409785,369.975998 474.208151,369.975998 470.574947,368.269323 C464.793781,364.657633 460.671416,358.900429 459.106904,352.253311 C458.499164,350.385304 458.065065,348.475778 457.804605,346.548458 L457.757,346.177 L458.134558,346.11085 C459.028894,345.960917 459.928458,345.852632 460.830345,345.785995 L460.965,345.777 L460.971487,345.70289 C461.066454,344.618884 461.224732,343.539091 461.446321,342.469127 L461.451,342.447 Z M472.622812,347.325307 C468.985148,346.06587 465.163073,345.541105 461.371733,345.751011 L460.965,345.777 L460.929279,346.245217 C460.720001,349.320102 461.01897,352.421289 461.826189,355.421027 L461.973915,355.949314 C463.405551,358.634035 465.354574,361.007027 467.707936,362.930652 C470.085559,365.392657 473.305179,366.86003 476.718541,367.037322 C479.234976,366.63773 481.482672,365.23315 482.948913,363.14398 C484.415153,361.05481 484.974884,358.45923 484.500427,355.949314 C482.284401,351.21737 477.797978,347.959903 472.622812,347.325307 Z M541.840641,297.634601 C549.626783,294.486978 558.078372,293.357089 566.415018,294.349265 C579.108308,295.456678 590.652486,301.989371 598.160224,312.182076 L598.382,312.487 L596.832,312.761 L596.663807,312.592923 C595.331617,311.286765 593.880863,310.105313 592.329401,309.064367 L591.808541,308.72261 C581.535333,300.156311 568.226521,296.153003 554.946975,297.634601 C549.120719,297.858326 543.454219,299.478918 538.412789,302.334508 L538.291,302.404 L538.501769,302.483566 C545.42952,305.134685 551.693877,309.495039 556.651115,315.296837 L556.99484,315.703949 C561.321229,322.011428 561.321229,330.340486 556.99484,336.647965 C553.141284,341.705749 546.918048,344.357689 540.611922,343.629304 C534.014603,342.681121 528.40781,338.308634 525.867295,332.130628 C522.845198,325.765291 522.845198,318.373283 525.867295,312.007946 C527.163943,309.583295 528.760648,307.356692 530.606794,305.373685 L530.879,305.084 L530.736716,305.042675 C523.029363,302.836551 514.875237,302.347087 506.857565,303.682341 L506.207794,303.794606 C491.971702,305.83926 478.839889,312.639742 468.936655,323.095954 C465.154036,328.137366 462.753551,334.083817 461.973915,340.343968 C461.820913,340.871149 461.683738,341.401724 461.562392,341.93499 L461.451,342.447 L461.425898,342.449902 C460.149068,342.583044 458.885654,342.788953 457.641325,343.065141 L457.524,343.092 L457.523308,343.065189 C457.429543,339.572952 457.89837,336.069184 458.929791,332.692252 L459.106904,332.130628 C462.042303,325.416134 466.535949,319.502469 472.213239,314.882615 C485.365511,304.494089 501.761828,299.111042 518.494982,299.687936 C524.151973,299.189599 529.764909,299.772368 535.068485,301.325877 L535.15,301.35 L535.160199,301.342199 C537.078056,299.949203 539.157825,298.768863 541.365599,297.831691 Z M533.321,305.853 L533.071826,306.070015 C528.917232,309.745119 526.080987,314.718896 525.04815,320.221286 C524.276827,326.096426 526.239847,332.001216 530.372598,336.237298 C534.178045,340.1953 539.90185,341.630073 545.117224,339.933301 C550.761009,338.382577 554.530966,333.056175 554.127829,327.202624 C553.348576,320.462988 549.588996,314.431592 543.888505,310.775945 C540.686137,308.841917 537.316246,307.256718 533.835403,306.030829 L533.321,305.853 Z M598.771,313.033 L598.793791,313.064658 C599.20949,313.658967 599.611739,314.265062 600,314.882615 L600,314.882615 L598.771281,314.882615 L598.771281,314.882615 L598.771,313.033 Z M596.832,312.761 L597.103455,313.032906 C597.683732,313.625651 598.240196,314.242683 598.771281,314.882615 L584.845801,314.882615 L596.832,312.761 Z M598.771281,312.418613 L598.771,313.033 L598.479504,312.621141 L598.479504,312.621141 L598.382,312.487 L598.771281,312.418613 Z M599.561,304.047 L599.5614,304.45794 C599.493849,305.687012 599.493849,306.918867 599.5614,308.14794 C599.668042,309.375628 599.668042,310.610251 599.5614,311.83794 C599.006967,309.270868 599.006967,306.615011 599.5614,304.04794 L599.561,304.047 Z M535.15,301.35 L534.751721,301.643942 C533.398469,302.660528 532.129062,303.784499 530.955857,305.004737 L530.879,305.084 L531.360646,305.225309 C531.983574,305.411702 532.603461,305.60936 533.219996,305.818227 L533.321,305.853 L533.421083,305.766779 C533.890801,305.366517 534.376629,304.982552 534.8779,304.61594 C535.852913,303.903726 536.85949,303.242706 537.893511,302.634312 L538.291,302.404 L538.017369,302.30138 C537.208269,302.002372 536.390402,301.726557 535.56478,301.474359 L535.15,301.35 Z M599.5614,299.94794 L599.561,304.047 L599.520673,303.365092 C599.477232,302.454175 599.477232,301.541704 599.520673,300.630787 L599.5614,299.94794 Z" id="Combined-Shape" transform="translate(516.000000, 337.500000) scale(-1, 1) rotate(-105.000000) translate(-516.000000, -337.500000) "></path>
            </g>
        </g>
    </g>
</svg>