<?xml version="1.0" encoding="UTF-8"?>
<svg width="51px" height="211px" viewBox="0 0 51 211" version="1.1" xmlns="http://www.w3.org/2000/svg" xmlns:xlink="http://www.w3.org/1999/xlink">
    <title>Combined Shape</title>
    <g id="Design" stroke="none" stroke-width="1" fill="none" fill-rule="evenodd">
        <g id="1_Home_Agency_1440" transform="translate(-293.000000, -5020.000000)" fill="#E7C4B2">
            <g id="pic" transform="translate(135.000000, 4709.000000)">
                <path d="M98.435,431.027 L98.4049457,430.976527 C98.8370628,431.718615 99.3181782,432.422595 99.8428969,433.085481 L99.965,433.237 L99.6824564,433.463317 C93.949905,437.999514 86.9984775,440.976828 79.5194939,441.934659 L78.9968571,441.998202 L78.9968571,441.994153 L78.8657156,441.999958 C77.6435744,441.989676 77.7408251,440.095561 78.9968571,439.934225 C80.4033863,439.750671 81.7967066,439.479309 83.1684336,439.12177 C88.7598836,437.58246 93.8673789,434.869849 98.18443,431.241528 L98.435,431.027 Z M130.602,429.342 L130.771944,429.633204 C131.225402,430.39924 131.728032,431.135142 132.27637,431.836392 L132.425,432.023 L132.309483,432.14513 C127.817789,436.805183 121.675901,439.612043 115.133457,439.956904 L114.676373,439.976962 C108.97869,440.131187 103.599726,437.645604 100.07043,433.36705 L99.965,433.237 L100.080415,433.144315 C100.740356,432.608448 101.383598,432.051649 102.009056,431.474641 L102.263,431.237 L102.410664,431.440223 C102.499208,431.559674 102.589221,431.678246 102.680694,431.795914 L102.959487,432.146174 C107.220321,436.421486 113.531651,438.014167 119.349451,436.282226 C123.629512,434.990754 127.459148,432.627316 130.488811,429.463241 L130.602,429.342 Z M191.246457,393.527123 C192.776919,391.274835 195.703196,390.397683 198.244676,391.429406 C203.150354,394.648212 205.396207,400.618889 203.806778,406.216445 C204.048894,414.678547 200.920068,422.764085 195.300772,428.859089 L195.129,429.042 L195.16336,429.087646 C197.481904,432.130952 200.905614,434.188613 204.731352,434.814955 L205.115239,434.872801 C210.572762,434.660891 215.641037,432.636699 219.628764,429.320388 L219.645,429.306 L219.456739,428.972992 C218.363048,426.986965 217.564421,424.854941 217.086298,422.642426 L216.973458,422.087658 C215.529484,415.843827 215.44867,409.368262 216.736385,403.091238 C217.200349,400.142783 218.105315,397.278621 219.421695,394.592401 C220.583219,392.141816 223.296534,390.797194 225.98224,391.341232 C228.300682,392.121111 230.188625,393.813035 231.19785,396.015322 C232.336383,398.433919 232.945349,401.062202 232.985018,403.728696 C233.454805,412.511287 230.683553,421.164369 225.184397,428.085699 C224.87268,428.492736 224.549807,428.88996 224.216294,429.277014 L223.917,429.617 L223.98627,429.680435 C224.295388,429.952842 224.624935,430.205031 224.973166,430.434571 L225.237814,430.602441 C227.293225,431.856301 229.776127,432.233964 232.118789,431.649074 C238.0365,431.168619 243.954212,430.047557 249.830892,429.219807 C262.219486,427.492028 274.6096,425.783443 287.001234,424.094053 L283.326,424.597 L280.929653,422.857994 C279.97851,422.169843 279.027083,421.48207 278.077793,420.791339 L275.238756,418.706928 C274.431783,418.215928 274.158693,417.185608 274.618718,416.367633 C275.105829,415.557692 276.161989,415.284127 276.98945,415.753569 C280.764385,418.558922 284.466374,421.465496 288.250427,424.258703 L286.879408,423.232269 C287.005583,423.292397 287.123792,423.373673 287.22846,423.476015 C287.24764,423.494768 287.266096,423.513966 287.283829,423.533576 L288.250427,424.258703 C289.212397,424.970388 289.412998,426.961488 287.862904,427.182821 L287.862904,427.182821 L284.289736,427.694584 C282.781101,428.870745 281.22192,429.984417 279.616273,431.032506 L279.616273,431.032506 L275.600473,433.969206 C274.381511,434.97146 273.090152,435.886289 271.736473,436.706556 C271.051731,437.071377 270.197501,436.895384 269.721329,436.291386 C269.245158,435.687388 269.288203,434.834435 269.822873,434.279256 C271.072637,433.227893 272.39776,432.265432 273.788073,431.399256 L273.788073,431.399256 L277.661273,428.683506 C277.684467,428.66532 277.707673,428.647149 277.73089,428.628992 L277.522865,428.659276 C263.453483,430.690863 249.374982,432.658419 235.287363,434.561945 C232.447806,435.099933 229.532841,435.124626 226.684341,434.634823 C224.814915,434.191769 223.113407,433.27406 221.737583,431.99265 L221.629,431.889 L221.330971,432.149778 C218.624805,434.461842 215.464643,436.229233 212.027359,437.330182 L211.534452,437.482914 C206.346467,438.945156 200.763924,437.927021 196.44839,434.731544 C195.155372,433.720527 193.981417,432.584914 192.940775,431.346729 L192.856,431.244 L192.588986,431.477484 C191.39067,432.507166 190.108424,433.457313 188.748164,434.317083 L188.337752,434.572292 C183.575522,437.145734 177.968733,437.735256 172.763866,436.209798 C169.575497,435.09201 166.736227,433.238411 164.464355,430.83484 L164.361,430.723 L164.165676,430.937534 C163.68203,431.456224 163.179419,431.959714 162.658434,432.44693 L162.264259,432.809274 C156.513972,438.35492 148.17282,440.396377 140.462643,438.145114 C137.307766,436.782903 134.599088,434.702321 132.51416,432.134793 L132.425,432.023 L132.620163,431.817011 C132.928135,431.4859 133.227934,431.145838 133.519134,430.797031 C133.794596,430.493574 134.064792,430.186061 134.329649,429.87463 L134.528,429.636 L134.607136,429.742513 C136.863934,432.72352 140.137246,434.907593 143.940528,435.806392 L144.287728,435.884546 C151.192887,436.399613 157.908739,433.508686 162.223227,428.163975 L162.223227,428.163975 L162.282,428.093 L162.22153,428.003526 C161.971937,427.624574 161.73437,427.236652 161.509384,426.840231 L161.288611,426.440995 C156.353873,415.34901 157.677764,402.515673 164.776323,392.632343 C165.101135,392.106887 165.679861,391.786305 166.303621,391.786305 C166.927382,391.786305 167.506108,392.106887 167.83092,392.632343 C172.034981,399.32836 173.532274,407.339931 172.025292,415.075173 C171.224942,419.797296 169.331768,424.242411 166.527412,428.080504 L166.491,428.128 L166.717634,428.41599 C166.810439,428.532171 166.904405,428.647697 166.999531,428.762552 L167.288387,429.105091 C170.34691,432.266628 174.633836,433.980284 179.059983,433.810672 C183.38204,433.49906 187.475597,431.810585 190.730682,429.012566 L191.042,428.738 L190.956283,428.603312 C189.77045,426.683918 188.865459,424.593699 188.280404,422.393086 L188.159947,421.919859 C186.846951,415.43952 187.026128,408.750907 188.684243,402.348062 C189.059609,400.5639 189.468408,398.787836 189.910641,397.019869 C190.155445,395.790273 190.606946,394.609738 191.246457,393.527123 Z M221.968,427.088 L221.886204,427.179709 C221.268829,427.84687 220.614128,428.477646 219.925807,429.06925 L219.645,429.306 L219.736294,429.466419 C219.831518,429.629855 219.928777,429.79224 220.028055,429.953535 C220.453969,430.612007 220.94769,431.217666 221.498203,431.762766 L221.629,431.889 L221.714458,431.815791 C222.47518,431.140459 223.198154,430.421137 223.879253,429.660666 L223.917,429.617 L223.758289,429.472378 C223.086002,428.837062 222.51935,428.102477 222.078226,427.296337 L221.968,427.088 Z M193.311,426.146 L193.114579,426.399968 C192.575747,427.083528 192.009088,427.749475 191.415144,428.396105 L191.076205,428.708545 L191.076205,428.708545 L191.042,428.738 L191.214674,429.011974 C191.652443,429.688646 192.125677,430.342978 192.632596,430.972218 L192.856,431.244 L192.945957,431.166204 C193.654839,430.538915 194.333295,429.883384 194.980045,429.201953 L195.129,429.042 L194.935215,428.780047 C194.78561,428.572812 194.64102,428.361263 194.501655,428.145531 C194.124113,427.57611 193.772025,426.992913 193.445877,426.397631 L193.311,426.146 Z M103.342451,395.794439 C105.531086,393.533181 109.102044,393.281273 111.594422,395.212315 C113.723877,397.321039 114.883971,400.199075 114.804028,403.174913 C114.869965,409.571278 113.182897,415.866349 109.921232,421.394417 C107.903114,425.047158 105.350033,428.31772 102.382188,431.126017 L102.263,431.237 L102.149447,431.079264 C101.721454,430.473365 101.330385,429.846188 100.977268,429.20111 L100.787,428.844 L100.527384,429.105717 C99.9008432,429.724882 99.2536017,430.32287 98.5868284,430.898698 L98.435,431.027 L98.4049457,430.976527 C95.8127464,425.680924 95.0088762,419.709978 96.1027824,413.93839 L96.2074595,413.414274 C96.7055959,410.271238 97.5196102,407.184945 98.6374597,404.201053 C99.5256354,401.077445 101.136197,398.199784 103.342451,395.794439 Z M164.478,425.101 L164.333831,425.327759 C163.774323,426.18317 163.165625,427.015445 162.508041,427.820587 L162.282,428.093 L162.475112,428.37947 C162.990212,429.125308 163.552681,429.834638 164.158092,430.503688 L164.361,430.723 L164.524845,430.545683 C165.117504,429.887903 165.680299,429.206792 166.212077,428.504445 L166.491,428.128 L166.442708,428.065501 C165.718876,427.125715 165.069518,426.145076 164.495597,425.131834 L164.478,425.101 Z M133.044987,396.371165 C133.312527,395.486239 134.239398,394.966654 135.146732,395.19297 C136.505858,395.674048 137.759295,396.406976 138.839603,397.352319 C142.644538,401.667203 144.028445,407.56539 142.532474,413.091272 C141.298784,419.079644 138.615437,424.67488 134.722923,429.404564 L134.528,429.636 L134.404786,429.469331 C133.806219,428.643279 133.284357,427.759052 132.84907,426.826555 L132.788,426.691 L132.605602,426.944305 C132.046781,427.70447 131.447214,428.430985 130.810341,429.121182 L130.602,429.342 L130.580626,429.30307 C129.388138,427.200709 128.561569,424.881085 128.170208,422.434513 L128.112041,422.04717 C127.273252,413.200902 128.983179,404.300721 133.044987,396.371165 Z M108.088474,396.888059 C105.397725,397.506985 103.298404,399.582831 102.676822,402.239195 C100.332108,407.247053 98.9795985,412.651164 98.6921689,418.160343 C98.3449747,421.860243 99.0804858,425.551424 100.76996,428.811942 L100.787,428.844 L100.900815,428.731684 C103.868239,425.719221 106.353326,422.223368 108.226775,418.352796 L108.457761,417.867031 C110.959467,412.980949 112.068847,407.516 111.667367,402.0561 C111.755774,399.744329 110.303273,397.64687 108.088474,396.888059 Z M224.053741,394.661681 C222.115906,396.086692 220.888112,398.261358 220.680007,400.637228 C219.918287,403.222726 219.426387,405.87828 219.211977,408.562488 C218.715656,414.118186 219.397274,419.714991 221.213421,424.996481 C221.37072,425.705388 221.614653,426.385912 221.935862,427.025011 L221.968,427.088 L222.148497,426.891563 C224.228387,424.568704 225.863283,421.822817 226.903866,418.766256 L227.030833,418.382576 C228.943532,413.738341 229.772492,408.728905 229.456274,403.725547 C229.426235,401.508869 228.885233,399.32802 227.874266,397.34827 C227.322851,395.732237 225.781777,394.648556 224.053741,394.661681 Z M286.798234,425.641269 C286.481434,425.913417 286.162112,426.182667 285.840311,426.448985 C286.099705,426.634687 286.356899,426.826166 286.61371,427.018171 Z M135.368,399.184 L135.354864,399.211778 C131.638279,406.626504 130.338177,415.0116 131.659021,423.20917 C131.89115,424.359936 132.245054,425.466059 132.707195,426.513949 L132.788,426.691 L132.881601,426.561431 C133.154172,426.175778 133.416414,425.781824 133.667896,425.379902 L133.915775,424.975337 C137.129804,420.443769 139.075153,415.155613 139.555382,409.644861 C140.266229,405.676616 138.664517,401.696722 135.498565,399.280884 L135.368,399.184 Z M197.588165,394.96219 C196.811286,394.469669 195.848239,394.356399 194.975801,394.654933 C194.206863,395.158757 193.678586,395.949434 193.51233,396.845322 C191.636767,402.461313 190.618063,408.321314 190.489647,414.233027 C190.386629,418.314506 191.327255,422.341624 193.206137,425.948931 L193.311,426.145 L193.434535,425.987731 C198.816869,418.94424 201.292788,410.103608 200.286537,401.272732 L200.223325,400.753293 C200.382373,398.509433 199.393302,396.335823 197.588165,394.96219 Z M286.249,424.197 L284.508637,424.435469 C284.322906,424.64182 284.136812,424.84741 283.945293,425.048965 C284.425317,425.398623 284.905522,425.751108 285.384678,426.105037 C285.857434,425.914961 286.338291,425.730914 286.813129,425.523958 L286.853,425.207 L286.249,424.197 Z M166.238,397.086 L166.020969,397.479872 C165.311732,398.788701 164.659142,400.127264 164.065103,401.49197 C160.215559,408.905596 160.398586,417.601505 164.283915,424.750356 L164.478,425.101 L164.570608,424.959749 C169.869248,416.586619 170.521976,406.084021 166.251843,397.114781 L166.238,397.086 Z M136.167971,397.674422 L134.239471,398.451338 C134.594003,398.651358 134.933828,398.868988 135.258198,399.102653 L135.368,399.184 L135.618078,398.696061 C135.796165,398.353318 135.97947,398.012733 136.167971,397.674422 Z M167.83092,394.39761 L164.776323,394.39761 C165.242787,395.157734 165.670703,395.932731 166.06026,396.720085 L166.238,397.086 L166.453293,396.698171 C166.892384,395.920096 167.35173,395.152984 167.83092,394.39761 Z" id="Combined-Shape" transform="translate(183.500000, 416.500000) rotate(-90.000000) translate(-183.500000, -416.500000) "></path>
            </g>
        </g>
    </g>
</svg>