<?xml version="1.0" encoding="UTF-8"?>
<svg width="274px" height="96px" viewBox="0 0 274 96" version="1.1" xmlns="http://www.w3.org/2000/svg" xmlns:xlink="http://www.w3.org/1999/xlink">
    <title>Combined Shape</title>
    <g id="Design" stroke="none" stroke-width="1" fill="none" fill-rule="evenodd">
        <g id="1_Home_Agency_1440" transform="translate(-1012.000000, -3487.000000)" fill="#E7C4B2">
            <g id="pic" transform="translate(776.299193, 3407.343644)">
                <path d="M495.23014,67.3572351 C495.719056,66.632953 496.643323,66.3421991 497.45884,66.6561351 C498.46779,67.0474023 499.188442,67.9509391 499.34554,69.0216351 C500.27464,72.0882351 501.11824,75.1890351 502.00744,78.2727351 C502.44064,79.7661351 502.88524,81.2595351 503.30134,82.7586351 L503.034809,81.8180587 C503.754169,82.2748759 504.467844,82.7424746 505.175582,83.2208006 C505.812371,83.6161907 506.157703,84.341241 506.059875,85.0774386 C505.962047,85.8136362 505.438957,86.4262828 504.720398,86.6462442 C498.972105,89.0004898 493.069828,90.970357 487.053556,92.5424996 C486.318937,92.7176484 485.563927,92.341707 485.270148,91.6544889 C484.976368,90.9672709 485.23035,90.1711899 485.870076,89.7740673 C490.002485,87.8884152 494.223685,86.2010277 498.518854,84.7175044 L499.736282,84.3027236 L499.146397,83.9548242 C498.452838,83.5502804 497.754701,83.1535294 497.051322,82.766405 L495.992238,82.1931675 C476.795244,70.8497136 453.548892,68.3062182 432.300569,75.2243552 C423.006855,78.6266993 414.92115,84.6317674 409.034959,92.5031913 C406.01286,96.7007636 403.778175,101.326846 401.607706,105.989718 L400.607877,108.142999 C398.44005,112.807919 396.225177,117.449365 393.240062,121.675617 C381.8666,137.471289 364.142291,147.657506 344.609305,149.623867 C333.752845,150.148927 322.88692,148.797738 312.501739,145.63126 C302.06996,142.164679 290.875785,141.582083 280.132442,143.946616 C262.094254,149.533355 249.452939,165.568735 248.400403,184.198386 C248.367322,185.080375 247.633255,185.778531 246.738981,185.778531 C245.844706,185.778531 245.110639,185.080375 245.076282,184.198386 C245.058069,181.839394 245.26189,179.483763 245.686367,177.162188 C249.456982,158.42762 264.124364,143.68278 283.034242,139.61708 C294.534399,138.320512 306.182783,139.559512 317.138929,143.244681 C322.819739,144.813887 328.637634,145.851715 334.515592,146.344426 C339.47913,146.636893 344.460248,146.316198 349.343222,145.389795 C359.092254,143.520291 368.284435,139.492083 376.227547,133.608515 C384.286656,127.569153 390.742936,119.692375 395.04373,110.652427 C397.638281,105.334566 399.857305,99.8257789 402.850142,94.6988445 C405.451941,90.2227849 408.737529,86.1694481 412.591087,82.6817144 C420.242296,75.9409906 429.515547,71.2470012 439.52662,69.0473257 C459.953504,65.5924551 480.879847,69.2555753 498.771945,79.2737672 L498.51334,78.3297351 L497.04844,72.9831351 C496.874531,72.0577242 496.636816,71.1461509 496.337271,70.2548849 L496.257282,70.0307236 L496.182446,70.0136944 C495.294846,69.7631666 494.737567,68.3809722 495.17716,67.4578359 Z M496.38154,67.6308351 L496.22194,67.6935351 L497.13394,67.8132351 L496.56394,69.3180351 L495.73174,68.6739351 C495.880952,69.0197625 496.020461,69.3694601 496.15014,69.7226139 L496.257282,70.0307236 L496.282394,70.0367929 C496.586112,70.0916325 496.92379,70.0141851 497.27074,69.7455351 C498.19414,69.0330351 497.72104,67.0836351 496.38154,67.6308351 Z" id="Combined-Shape" transform="translate(375.576282, 126.154627) scale(1, -1) rotate(37.000000) translate(-375.576282, -126.154627) "></path>
            </g>
        </g>
    </g>
</svg>