<?xml version="1.0" encoding="UTF-8"?>
<svg width="215px" height="130px" viewBox="0 0 215 130" version="1.1" xmlns="http://www.w3.org/2000/svg" xmlns:xlink="http://www.w3.org/1999/xlink">
    <title>Path</title>
    <g id="Design" stroke="none" stroke-width="1" fill="none" fill-rule="evenodd">
        <g id="1_Home_Agency_1440" transform="translate(-793.000000, -3768.000000)" fill="#E7C4B2">
            <g id="pic" transform="translate(776.299193, 3407.343644)">
                <path d="M219.407127,380.004535 C209.58305,365.922633 192.660562,358.621867 175.706717,361.151136 C171.528635,361.698065 167.449185,362.837034 163.590527,364.533935 C159.452517,366.51461 155.540986,368.939405 151.924551,371.765783 C148.140672,374.737417 144.132825,377.410653 139.936994,379.76149 C135.56054,382.078611 130.633852,383.147459 125.693421,382.851642 C115.300444,381.027928 105.240279,377.646973 95.8506865,372.822288 C85.8567053,368.858145 75.0009735,367.589187 64.3654144,369.141882 C54.7209095,370.59244 45.8603723,375.303602 39.2523971,382.494513 C33.006167,389.182775 29.5659223,398.02394 29.6445407,407.185969 C30.4380652,412.847476 30.9170531,418.548831 31.0792875,424.263648 C30.4067905,428.946922 28.4605367,433.353978 25.4540904,437.001225 C22.6125592,440.570638 20.2028687,444.46502 18.2754088,448.602935 C16.6436206,452.733023 16.270011,457.255477 17.2018223,461.598438 C19.5497145,470.44729 25.2234678,478.041214 33.0335117,482.788053 C41.7217882,488.199404 51.8060864,490.92835 62.0302402,490.634956 C72.738281,490.441107 83.2294189,487.57548 92.5557162,482.297001 C100.887816,476.575065 110.191141,472.424961 120.008855,470.050475 C130.75493,469.915347 141.464239,471.335341 151.805814,474.266574 C156.930695,475.199865 162.17082,475.312035 167.330764,474.598902 C171.589743,473.887208 175.697966,472.458381 179.481585,470.372883 C187.250801,466.142743 193.482786,459.55265 197.282341,451.549244 C199.148738,447.573167 200.318562,443.304671 200.740576,438.93071 C200.305065,434.269242 201.700139,429.62128 204.629235,425.974888 C207.819172,423.606996 211.397141,421.815932 215.201835,420.682444 C219.347132,419.259987 223.092722,416.863657 226.1257,413.693641 C230.753932,408.485937 232.652752,401.390458 231.246193,394.559474 C229.839634,387.728489 225.293437,381.966925 218.986598,379.022432 C218.031416,378.499883 216.835478,378.815412 216.260579,379.741649 C215.713961,380.693316 216.031356,381.908703 216.973005,382.469713 C224.949893,386.040426 229.290846,394.771659 227.332867,403.307159 C226.284744,407.566618 223.761666,411.314378 220.213554,413.882125 C216.79017,415.911996 213.153102,417.555544 209.368847,418.78272 C205.580241,420.040614 202.232828,422.365201 199.726358,425.478876 C197.50283,429.799992 196.426038,434.622138 196.5996,439.481283 C195.455764,447.667775 191.543718,455.212562 185.517417,460.854421 C179.675081,466.603969 172.030197,470.152361 163.877477,470.898655 C153.521907,470.541025 143.238531,469.025416 133.218421,466.37999 C128.091311,465.480117 122.85166,465.429848 117.708313,466.231186 C112.944694,467.192454 108.346352,468.845026 104.058428,471.136741 C95.6446825,476.336631 86.7771209,480.759393 77.5650853,484.350489 C58.8207557,490.950367 37.9578423,485.318238 25.0533508,470.174478 C22.6066462,466.890375 21.0166121,463.045733 20.427529,458.989418 C19.9831308,454.834803 20.8648315,450.645949 22.9457571,447.025618 C25.1127196,443.092247 28.0415821,439.659847 30.4212829,435.865358 C33.0324153,431.927856 34.4673811,427.32451 34.5573118,422.597049 C34.5820488,417.131001 33.0335117,411.788957 33.0186695,406.322909 C33.0310687,402.055781 33.9661711,397.842085 35.7595307,393.972221 C39.4796799,386.051602 45.8621258,379.696656 53.7878669,376.021562 C63.1805816,371.955476 73.6063782,370.935712 83.6058643,373.105014 C93.556475,375.89534 103.296177,379.392807 112.751015,383.570859 C117.450026,385.334037 122.409315,386.29961 127.425012,386.427885 C132.267828,386.381469 137.029982,385.17937 141.317319,382.921083 C149.455797,378.759546 155.907211,371.929467 164.169373,367.971295 C179.10644,361.421702 196.403368,363.438008 209.443058,373.248858 C212.522729,375.588629 215.326228,378.272858 217.799221,381.249524 C218.167346,381.597146 218.732905,381.62491 219.133144,381.315009 C219.533382,381.005107 219.649546,380.44949 219.407127,380.004535 L219.407127,380.004535 L219.407127,380.004535 Z" id="Path"></path>
            </g>
        </g>
    </g>
</svg>