<?xml version="1.0" encoding="UTF-8"?>
<svg width="94px" height="34px" viewBox="0 0 94 34" version="1.1" xmlns="http://www.w3.org/2000/svg" xmlns:xlink="http://www.w3.org/1999/xlink">
    <title>Combined Shape</title>
    <g id="Design" stroke="none" stroke-width="1" fill="none" fill-rule="evenodd">
        <g id="1_Home_Agency_1440" transform="translate(-1049.000000, -722.000000)" fill="#8082A5">
            <g id="pic" transform="translate(735.000000, 178.000000)">
                <path d="M384.091193,514.507321 C384.76753,514.338923 385.467714,514.679402 385.746082,515.312044 C386.023136,515.950066 385.7771,516.692361 385.171959,517.044183 C384.436232,517.378949 383.706559,517.725561 382.983218,518.083842 C382.950149,520.113618 382.702848,522.133189 382.245734,524.110066 C381.996084,525.135091 381.676618,526.14184 381.289574,527.123266 C381.068932,527.992361 380.601143,528.778887 379.942814,529.387666 C379.703755,529.526402 379.413918,529.546591 379.157933,529.442337 C378.901948,529.338084 378.708685,529.121145 378.634574,528.854866 C378.599517,527.99069 378.766672,527.13026 379.122734,526.342066 C379.395974,525.449266 379.625294,524.542066 379.858574,523.634866 C380.235483,522.186069 380.534267,520.718355 380.753727,519.238078 C375.873726,521.863969 371.308699,525.032819 367.146179,528.685605 C357.525534,537.044528 349.901052,547.412642 344.823231,559.041353 C342.300763,564.826099 340.441085,570.872141 339.278969,577.066431 C338.183645,583.277425 337.627676,589.569773 337.61715,595.874581 L337.61715,595.874581 L337.617879,595.874581 L337.608611,595.969039 C337.502527,596.544676 336.526772,596.684717 336.427322,596.033361 C335.436191,588.771439 335.744116,581.393632 337.337018,574.23727 C340.003524,561.521283 345.532135,549.563223 353.512037,539.251657 C357.500831,534.056936 362.077929,529.331318 367.153839,525.167197 C369.711002,523.109466 372.381886,521.198379 375.153168,519.442375 L375.776391,519.052488 L371.582391,519.877488 L371.529047,519.908348 L371.529047,519.908348 L371.431674,519.945517 C370.960898,520.063399 370.4915,520.159228 370.021778,520.242895 L369.767391,520.285488 L369.404503,520.357773 C368.756592,520.479936 368.104633,520.580767 367.449705,520.660073 L366.793826,520.732197 L366.795391,520.714488 L366.78134,520.715074 C366.205301,520.688411 365.685147,520.32608 365.47533,519.777596 L365.432535,519.647787 C365.222561,518.894244 365.651749,518.11118 366.404634,517.874167 C367.877423,517.452 369.380708,517.141956 370.901322,516.946751 L370.901322,516.946751 L375.22767,516.120376 C378.176098,515.553822 381.130606,515.016137 384.091193,514.507321 Z M367.185937,517.874167 L366.795391,520.714488 L366.915148,520.7152 C367.00486,520.711221 367.095432,520.699025 367.185937,520.678068 C367.902679,520.566201 368.611031,520.471474 369.316739,520.360509 L369.767391,520.285488 L370.051025,520.228505 C370.481087,520.137596 370.90919,520.037233 371.335014,519.927474 L371.582391,519.877488 L371.61839,519.858674 C371.816775,519.729132 371.942108,519.507451 371.942108,519.263487 C371.942108,518.94982 371.734925,518.672987 371.431674,518.581457 C370.018982,518.235029 368.61942,518.090684 367.185937,517.874167 Z M383.75489,514.648057 C381.124883,515.925741 378.563677,517.33263 376.080629,518.862796 L375.776391,519.052488 L375.84228,519.039753 C377.537192,518.703817 379.229781,518.363286 380.920507,518.013625 C381.094162,516.947167 382.526642,516.763057 382.896944,517.598238 L384.835291,517.18492 L384.835291,517.18492 L383.75489,514.648057 Z" id="Combined-Shape" transform="translate(360.859391, 555.464488) scale(-1, 1) rotate(-134.000000) translate(-360.859391, -555.464488) "></path>
            </g>
        </g>
    </g>
</svg>