<?xml version="1.0" encoding="UTF-8"?>
<svg width="112px" height="82px" viewBox="0 0 112 82" version="1.1" xmlns="http://www.w3.org/2000/svg" xmlns:xlink="http://www.w3.org/1999/xlink">
    <title>Path</title>
    <g id="Design" stroke="none" stroke-width="1" fill="none" fill-rule="evenodd">
        <g id="1_Home_Agency_1440" transform="translate(-1193.000000, -258.000000)" fill="#8082A5">
            <g id="pic" transform="translate(735.000000, 178.000000)">
                <path d="M471.330167,106.474718 C473.037641,100.910011 476.969884,96.3059045 482.188649,93.7609556 C486.926257,91.726716 492.413344,92.6829577 496.190034,96.2009947 C498.290705,97.9131379 498.993306,100.822207 497.906877,103.309456 C497.127459,104.080122 496.054095,104.47506 494.962962,104.392653 C493.871829,104.310246 492.869465,103.758539 492.213781,102.879487 C490.571758,100.273339 490.547584,96.9574797 492.151433,94.3275026 C493.342862,91.7042127 495.006358,89.324 497.058404,87.3063665 C500.895995,83.1605439 506.576836,81.2669487 512.123696,82.2846515 C517.246416,83.3370565 521.211491,87.4181237 522.129991,92.5836666 C522.576425,95.3406959 521.398593,98.1088799 519.105418,99.6921276 C517.157177,100.801823 514.681562,100.123695 513.565409,98.174591 C513.160397,96.6549306 513.340365,95.0379617 514.069504,93.6454098 C514.554839,92.4472325 515.180892,91.311437 515.934392,90.2621018 C517.509332,88.1044079 519.515347,86.2999804 521.82435,84.9640354 C526.412012,82.1819679 531.840399,81.1392686 537.127628,82.0245404 C542.073018,82.7087938 546.395131,85.722517 548.758968,90.1348418 C550.440004,95.2599073 548.089777,100.843166 543.256368,103.206955 C542.095859,103.936487 540.835663,104.49254 539.515449,104.857609 C538.428672,105.31152 537.181525,105.132548 536.265094,104.391166 C535.723939,102.980832 536.083401,101.382232 537.17565,100.34174 C537.939211,99.2926497 538.819553,98.3343991 539.799599,97.4855761 C543.830092,93.9614035 549.167596,92.3303798 554.471431,93.0021873 C559.676736,93.7990831 564.158456,97.1141041 566.45723,101.867796 C568.875005,106.408402 568.810041,111.874556 566.285041,116.356011 C563.654714,120.559903 559.184482,123.253331 554.250425,123.607174 C553.080932,123.686384 551.906136,123.606861 550.757839,123.370757 C549.460209,123.242942 548.23706,122.703019 547.266315,121.829526 C546.778269,120.96797 546.79217,119.909044 547.302663,119.060687 C547.809757,117.985725 548.627673,117.088896 549.64989,116.486998 C553.89426,114.374099 558.981726,114.976693 562.619206,118.023171 C566.605394,121.08823 568.54924,126.132483 567.65512,131.091291 C566.594322,136.601601 563.301244,141.422608 558.562299,144.403016 C554.09874,147.278879 548.663407,148.214429 543.499925,146.995608 C541.007139,146.392635 538.730907,145.10505 536.926255,143.27711 C535.31208,141.708264 534.537267,139.462824 534.839034,137.228263 C535.162132,136.174184 536.006332,135.363297 537.069879,135.085448 C538.133427,134.807599 539.264502,135.102451 540.05881,135.86461 C542.058108,137.907107 542.917468,140.811804 542.35271,143.618157 C541.749831,148.929144 538.874339,153.714234 534.474759,156.72781 C530.361033,159.787656 525.011227,160.622779 520.165611,158.961517 C515.771661,157.15235 512.332412,153.58097 510.680922,149.112438 C509.839553,146.969935 509.47176,144.669671 509.602953,142.370582 C509.685051,141.189609 509.92657,140.02529 510.320891,138.909534 C510.501617,137.686799 511.282965,136.637217 512.400152,136.116467 C513.569139,136.095646 514.603962,136.871419 514.915589,138.002206 C515.262969,139.537167 515.163884,141.139936 514.630112,142.620044 C513.900172,145.288404 512.707492,147.806865 511.10675,150.059967 C508.098301,154.495348 503.412145,157.50216 498.137699,158.381392 C493.081185,159.02882 488.000603,157.377575 484.282502,153.878302 C480.79965,150.549978 479.469216,145.543864 480.837938,140.917208 C481.451385,138.682388 482.62195,136.641174 484.239256,134.986036 C485.016401,134.201222 485.904465,133.535508 486.87488,133.01031 C487.349428,132.754472 487.844781,132.539558 488.355594,132.367886 C488.904553,132.065574 489.54326,131.970559 490.156011,132.100054 C490.637598,132.968625 490.604056,134.032603 490.068723,134.868893 C489.52922,136.123341 488.850793,137.312903 488.046238,138.415136 C486.418885,140.649996 484.31514,142.492365 481.888314,143.807982 C479.506998,145.126067 476.828017,145.807787 474.108529,145.787702 C471.495957,145.718016 468.953922,144.922076 466.76545,143.488501 C462.236466,140.795226 459.710576,135.680117 460.318334,130.432627 C461.347392,125.312731 465.404267,121.352587 470.5329,120.461613 C473.130118,119.85831 475.834389,120.878675 477.392048,123.049679 C478.880987,125.835822 474.526663,126.697091 472.679816,126.678188 C467.474796,126.801803 462.938755,123.142824 461.94034,118.015233 C460.941926,112.887643 463.771843,107.784431 468.640419,105.93293 C471.086142,104.776572 473.961891,105.0244 476.17532,106.582276 C477.032571,107.264348 477.550811,108.287622 477.594547,109.384566 C477.638283,110.481509 477.203167,111.54306 476.402959,112.291675 C475.4407,112.723332 474.343686,112.737916 473.370369,112.331992 C472.397052,111.926068 471.633496,111.135529 471.259593,110.146624 C470.48292,107.244654 471.313894,104.14752 473.437551,102.029134 C474.143816,101.209398 472.957069,100.008414 472.246029,100.833209 C469.523957,103.283646 468.376655,107.044409 469.265233,110.604015 C470.311998,113.435699 473.26205,115.0765 476.209811,114.466545 C477.5067,113.957174 478.545056,112.94598 479.091296,111.660436 C479.637536,110.374892 479.645788,108.922953 479.114197,107.63124 C477.781682,104.640846 474.662046,102.87155 471.4217,103.268456 C465.174525,103.90126 460.256084,108.898007 459.702541,115.174196 C459.364641,121.480634 463.647912,127.096963 469.802492,128.417498 C472.758178,129.298202 475.955049,128.717127 478.415096,126.85204 C479.599732,125.69225 479.928211,123.909576 479.23518,122.401398 C478.526051,120.965176 477.332043,119.828063 475.8657,119.192473 C471.416263,117.876353 466.605867,118.869519 463.035626,121.841401 C459.465386,124.813282 457.603941,129.373783 458.070864,134.004962 C458.496481,137.076498 459.839504,139.946559 461.922949,142.236932 C466.221332,147.112398 472.940617,149.055533 479.165403,147.223238 C482.198332,146.294582 484.968805,144.657968 487.249768,142.447524 C488.445072,141.297102 489.499197,140.007562 490.389752,138.606292 C491.264716,137.337986 491.922372,135.931904 492.33556,134.446112 C492.798008,133.096751 492.479973,131.601427 491.508844,130.559089 C490.038561,129.756665 488.2504,129.816786 486.83694,130.716167 C484.3241,131.813725 482.194905,133.638927 480.721996,135.958058 C477.504111,140.797452 477.231475,147.029945 480.014405,152.133667 C483.257996,157.29815 488.844699,160.510186 494.925019,160.706418 C501.216695,160.858234 507.230331,158.106594 511.241794,153.240404 C513.349928,150.786745 514.988627,147.963693 516.075539,144.913121 C517.791265,141.857648 517.584242,138.080783 515.544912,135.232569 C514.372925,134.042478 512.603037,133.675722 511.057136,134.302612 C509.655622,135.16923 508.64491,136.54883 508.238712,138.1497 C507.293022,140.826701 507.068517,143.706817 507.587898,146.498814 C508.607075,152.111987 512.018145,156.99868 516.92693,159.877896 C522.233639,162.803756 528.686097,162.697753 533.894519,159.599149 C539.387155,156.511895 543.187651,151.091044 544.22768,144.860407 C544.923408,141.555673 544.240085,138.109203 542.336791,135.323355 C541.40083,134.046155 539.982336,133.211746 538.414535,133.016142 C536.846735,132.820538 535.267807,133.280978 534.048666,134.2893 C532.234538,136.537325 531.987319,139.674272 533.426771,142.180491 C534.802316,144.802533 537.037193,146.868101 539.754231,148.028597 C545.573818,150.524599 552.20314,150.264101 557.8104,147.319083 C563.629229,144.356272 567.851798,138.971546 569.353126,132.59951 C570.047479,129.601246 569.888533,126.467549 568.894399,123.555524 C567.89921,120.908116 566.194698,118.587957 563.968855,116.850941 C559.745781,113.1218 553.705781,112.298085 548.644087,114.761 C545.93658,116.093817 544.470884,119.096165 545.080928,122.059819 C545.76918,123.508241 547.085688,124.556339 548.647802,124.899476 C550.049484,125.366834 551.514365,125.615465 552.991247,125.636679 C558.841573,125.648704 564.310106,122.723381 567.561199,117.842664 C570.681338,112.703284 570.816523,106.279901 567.915392,101.012917 C565.154912,95.5393786 559.81437,91.8461737 553.73439,91.2061694 C547.517542,90.6829406 541.400035,93.0194537 537.103219,97.5582582 C535.205167,99.5909585 532.370558,103.619086 535.327211,106.022651 C538.23009,107.341327 541.631028,106.856757 544.053369,104.779336 C546.817821,103.177572 549.000409,100.731929 550.283193,97.7986679 C551.367644,95.126257 551.344054,92.1299962 550.217661,89.4751127 C547.501949,84.2830626 542.372948,80.8032016 536.559592,80.2085549 C530.394386,79.3972698 524.152595,80.971226 519.101969,84.6107422 C516.570527,86.3999753 514.491834,88.7592403 513.032394,91.4995598 C511.005076,94.1685027 511.021847,97.8724338 513.073253,100.522779 C515.300474,102.373113 518.512911,102.411604 520.783526,100.615163 C523.153918,98.4677155 524.244269,95.2399342 523.663768,92.0887367 C522.45961,86.0802487 517.649656,81.4625402 511.614559,80.5211142 C505.189406,79.7413159 498.812032,82.3062416 494.702156,87.3231393 C492.334865,89.8714365 490.592717,92.9388255 489.614241,96.2813975 C488.485661,99.4190589 489.485226,102.929362 492.095452,104.994986 C493.162948,105.838972 494.521914,106.220652 495.870917,106.055365 C497.219921,105.890077 498.44744,105.191487 499.2812,104.114549 C500.643195,101.258014 500.04695,97.8487756 497.797037,95.6283243 C493.679918,91.2601217 487.295753,89.9101258 481.772107,92.2396917 C476.033216,94.9189055 471.768612,100.007416 470.122195,106.140327 C470.041893,106.471065 470.238091,106.80596 470.565137,106.896393 C470.892182,106.986826 471.231635,106.800048 471.331493,106.474718 L471.331493,106.474718 L471.330167,106.474718 Z" id="Path"></path>
            </g>
        </g>
    </g>
</svg>