<?xml version="1.0" encoding="UTF-8"?>
<svg width="42px" height="56px" viewBox="0 0 42 56" version="1.1" xmlns="http://www.w3.org/2000/svg" xmlns:xlink="http://www.w3.org/1999/xlink">
    <title>Shape</title>
    <g id="Design" stroke="none" stroke-width="1" fill="none" fill-rule="evenodd">
        <g id="1_Home_Agency_1440" transform="translate(-1074.000000, -246.000000)" fill="#FFFFFF" fill-rule="nonzero">
            <g id="pic" transform="translate(735.000000, 178.000000)">
                <path d="M362.299756,89.8593512 C362.684714,88.7043464 364.31554,88.7043464 364.700498,89.8593512 L366.957756,96.6388798 C367.965123,99.6605004 370.336735,102.031081 373.35857,103.036907 L380.133843,105.294416 C381.288719,105.679418 381.288719,107.310425 380.133843,107.695426 L373.35507,109.952936 C370.333786,110.960415 367.96347,113.332292 366.957756,116.354463 L364.700498,123.130491 C364.530257,123.649274 364.046073,124 363.500127,124 C362.954181,124 362.469997,123.649274 362.299756,123.130491 L360.042498,116.350963 C359.035852,113.330128 356.665682,110.959694 353.645184,109.952936 L346.866411,107.695426 C346.347687,107.525166 345.996999,107.040928 345.996999,106.494921 C345.996999,105.948914 346.347687,105.464677 346.866411,105.294416 L353.645184,103.036907 C356.665682,102.030149 359.035852,99.6597141 360.042498,96.6388798 L362.299756,89.8593512 L362.299756,89.8593512 Z M348.780706,72.0127761 C348.883632,71.7019079 349.174197,71.4920191 349.501628,71.4920191 C349.82906,71.4920191 350.119625,71.7019079 350.222551,72.0127761 L351.576906,76.0797932 C352.182341,77.8928009 353.603189,79.3138068 355.415994,79.9193094 L359.482558,81.2738151 C359.793391,81.376753 360.003257,81.6673502 360.003257,81.9948181 C360.003257,82.322286 359.793391,82.6128832 359.482558,82.7158212 L355.415994,84.0703269 C353.603271,84.6743394 352.180851,86.0969178 351.576906,87.909843 L350.222551,91.9768601 C350.119625,92.2877283 349.82906,92.4976172 349.501628,92.4976172 C349.174197,92.4976172 348.883632,92.2877283 348.780706,91.9768601 L347.426351,87.909843 C346.822406,86.0969178 345.399986,84.6743394 343.587263,84.0703269 L339.520699,82.7158212 C339.209865,82.6128832 339,82.322286 339,81.9948181 C339,81.6673502 339.209865,81.376753 339.520699,81.2738151 L343.587263,79.9193094 C345.399986,79.3152968 346.822406,77.8927184 347.426351,76.0797932 L348.780706,72.0127761 Z M373.519552,68.3412606 C373.590368,68.1369804 373.782816,68 373.999001,68 C374.215186,68 374.407634,68.1369804 374.478449,68.3412606 L375.381353,71.050272 C375.783809,72.2612771 376.732208,73.2097811 377.943078,73.6122828 L380.651787,74.5152866 C380.856045,74.5861098 380.99301,74.7785796 380.99301,74.9947887 C380.99301,75.2109977 380.856045,75.4034675 380.651787,75.4742907 L377.943078,76.3772945 C376.73318,76.7798283 375.783842,77.7292727 375.381353,78.9393053 L374.478449,81.6483167 C374.407634,81.8525969 374.215186,81.9895773 373.999001,81.9895773 C373.782816,81.9895773 373.590368,81.8525969 373.519552,81.6483167 L372.616649,78.9393053 C372.21416,77.7292727 371.264822,76.7798283 370.054924,76.3772945 L367.349714,75.4742907 C367.145457,75.4034675 367.008491,75.2109977 367.008491,74.9947887 C367.008491,74.7785796 367.145457,74.5861098 367.349714,74.5152866 L370.058424,73.6122828 C371.269294,73.2097811 372.217692,72.2612771 372.620149,71.050272 L373.519552,68.3447607 L373.519552,68.3412606 Z" id="Shape"></path>
            </g>
        </g>
    </g>
</svg>