<?xml version="1.0" encoding="UTF-8"?>
<svg width="142px" height="73px" viewBox="0 0 142 73" version="1.1" xmlns="http://www.w3.org/2000/svg" xmlns:xlink="http://www.w3.org/1999/xlink">
    <title>Combined Shape</title>
    <g id="Design" stroke="none" stroke-width="1" fill="none" fill-rule="evenodd">
        <g id="1_Home_Agency_1440" transform="translate(-735.000000, -519.000000)" fill="#8082A5">
            <g id="pic" transform="translate(735.000000, 178.000000)">
                <path d="M21.575,382.192 L21.5844346,382.505352 C21.6125268,383.217349 21.668711,383.928513 21.7529874,384.637176 L21.771,384.781 L21.5803716,384.815422 C20.5627214,385.00649 19.5541297,385.261247 18.5606356,385.579693 L18.0651747,385.744223 C12.7378567,388.021661 8.34423072,392.03049 5.60245484,397.11545 C2.90366867,402.308856 1.93378098,408.221893 2.83296154,414 L2.83296154,414 L0.409654897,414 L0.307696345,413.406726 C-0.134124048,410.633908 -0.100137864,407.805047 0.409654897,405.040851 C1.23219987,398.854023 4.16544559,393.136366 8.7181348,388.845467 C12.2628129,385.639487 16.5466688,383.394015 21.1591909,382.287815 L21.575,382.192 Z M25.3350946,381.609231 C31.5304919,380.710759 37.8185825,382.463266 42.6444278,386.433388 C46.4827343,389.170216 48.374251,393.877097 47.491041,398.493781 C46.435715,400.697918 44.5800733,402.421826 42.2982411,403.317938 C39.2273186,404.749975 35.675937,404.749975 32.6050145,403.317938 C27.7185533,400.287439 24.2341728,395.456682 22.911788,389.879215 C22.4061296,388.336297 22.0426876,386.759622 21.821462,385.168178 L21.771,384.781 L22.0899237,384.725196 C22.7702583,384.611971 23.4541717,384.527052 24.1398744,384.470439 L24.483,384.445 L24.4862674,384.400377 C24.5602393,383.554903 24.6804436,382.712457 24.8468803,381.876823 L24.894,381.651 Z M34.3359479,385.744223 C31.2063509,384.668583 27.9152654,384.231605 24.654459,384.433287 L24.483,384.445 L24.4474322,384.907994 C24.2809954,387.447593 24.5306505,390.007628 25.1963974,392.48592 L25.3350946,392.980459 C26.5451683,395.233156 28.1925563,397.224287 30.1817079,398.838364 C32.1913656,400.904184 34.9127106,402.135427 37.7978145,402.28419 C39.9248012,401.9489 41.8246398,400.770345 43.063962,399.017363 C44.3032843,397.26438 44.7763904,395.08648 44.3753611,392.980459 C42.5022917,389.009977 38.7101955,386.2767 34.3359479,385.744223 Z M92.8414939,344.049723 C99.4226383,341.408613 106.566243,340.460546 113.612694,341.293062 C124.378702,342.225488 134.166698,347.741747 140.510759,356.345192 L140.631,356.512 L139.323934,356.74204 C138.177857,355.608818 136.925682,354.585075 135.583691,353.685111 L135.076267,353.353454 C126.39296,346.165641 115.143845,342.806543 103.919467,344.049723 C99.14348,344.231782 94.4944985,345.516262 90.3312882,347.779271 L89.841,348.051 C95.7477265,350.262477 101.086934,353.925102 105.310412,358.812412 L105.6504,359.211359 C109.30723,364.503842 109.30723,371.492592 105.6504,376.785074 C102.393229,381.028962 97.133112,383.254153 91.8029339,382.642979 C86.226629,381.847378 81.4875539,378.178509 79.340214,372.994665 C76.7858218,367.653635 76.7858218,361.451146 79.340214,356.110115 C80.454703,354.041272 81.8314525,352.144269 83.4254746,350.459292 L83.578,350.301 L83.5520437,350.293086 C77.0252214,348.423234 70.1164778,348.000436 63.3224197,349.116033 L62.7232542,349.218462 C50.690367,350.934092 39.5908586,356.640243 31.2202679,365.413847 C28.0230542,369.643997 25.9940732,374.633547 25.3350946,379.886318 C25.1908495,380.379706 25.063248,380.876636 24.9522902,381.37629 L24.894,381.651 L24.8058288,381.660282 C23.7490846,381.77216 22.703315,381.942587 21.6730251,382.169601 L21.575,382.192 L21.5686328,381.971224 C21.5124485,379.121986 21.9057384,376.266079 22.7485024,373.510195 L22.911788,372.994665 C25.3928986,367.360664 29.1910997,362.398623 33.9897612,358.522194 C45.1065626,349.805385 58.9653548,345.288576 73.1088541,345.772636 C77.8251175,345.360196 82.5051534,345.830306 86.9337699,347.094098 L87.185,347.167 L87.563389,346.899738 C89.0622786,345.857109 90.6734794,344.964867 92.3751694,344.242504 Z M85.641,350.946 L85.5219832,351.0472 C81.9601108,354.138586 79.5284558,358.344514 78.6478407,363.001768 C77.9958895,367.931484 79.6551086,372.886078 83.1482673,376.440492 C86.3647759,379.761573 91.2027543,380.965464 95.6109872,379.541735 C100.381329,378.240553 103.56784,373.771273 103.227094,368.859673 C102.568439,363.204576 99.3906986,358.14375 94.5724272,355.076367 C91.7932898,353.410172 88.8648834,352.052534 85.838961,351.012971 L85.641,350.946 Z M140.961,356.971 L141.123571,357.201336 C141.424337,357.634333 141.716578,358.074678 142,358.522194 L142,358.522194 L140.96144,358.522194 L140.96144,358.522194 L140.961,356.971 Z M139.323,356.742 L139.748708,357.172102 C140.168444,357.60724 140.572975,358.057522 140.96144,358.522194 L129.191093,358.522194 L139.323,356.742 Z M141.139,350.66 L141.139252,351 C141.083234,352.019231 141.083234,353.040769 141.139252,354.06 C141.227687,355.078083 141.227687,356.101917 141.139252,357.12 C140.679478,354.991209 140.679478,352.788791 141.139252,350.66 L141.139,350.66 Z M87.185,347.167 L87.1574018,347.187805 C85.9478925,348.063105 84.8148946,349.037891 83.77036,350.101486 L83.578,350.301 L84.126936,350.461826 C84.5095199,350.57682 84.8907317,350.696811 85.2704705,350.821782 L85.641,350.946 L85.8701947,350.751535 C86.2219062,350.459394 86.5840753,350.177891 86.9563206,349.907628 C87.8834529,349.235323 88.8443517,348.617383 89.8340576,348.055521 L89.841,348.051 L89.3668796,347.877295 C88.7256768,347.646969 88.0780813,347.433701 87.4247928,347.237781 L87.185,347.167 Z M141.139252,347.26 L141.139,350.66 L141.100345,349.980417 C141.071165,349.300452 141.071165,348.619548 141.100345,347.939583 L141.139252,347.26 Z" id="Combined-Shape"></path>
            </g>
        </g>
    </g>
</svg>