<?xml version="1.0" encoding="UTF-8"?>
<svg width="194px" height="89px" viewBox="0 0 194 89" version="1.1" xmlns="http://www.w3.org/2000/svg" xmlns:xlink="http://www.w3.org/1999/xlink">
    <title>Combined Shape</title>
    <g id="Design" stroke="none" stroke-width="1" fill="none" fill-rule="evenodd">
        <g id="1_Home_Agency_1440" transform="translate(-499.000000, -1174.000000)" fill="#E7C4B2">
            <g id="pic" transform="translate(139.000000, 1174.000000)">
                <path d="M395.144,53.411 L395.000411,53.6969483 C394.648413,54.4088482 394.328589,55.1385452 394.042463,55.8839692 L393.889,56.293 L393.705714,56.3299566 C389.193707,57.2407298 384.837342,58.829951 380.785719,61.0494634 L380.180279,61.3871114 C369.67518,66.4162088 362.600335,76.6467156 361.577628,88.2872836 L361.577628,88.2872836 L361.577628,88.288114 L361.567967,88.3855127 C361.509797,88.7353844 361.207046,89 360.84444,89 C360.448869,89 360.124531,88.6850856 360.111251,88.288114 C359.842688,85.5720814 360.061321,82.8297006 360.756771,80.1911556 C364.70295,69.0119822 373.516198,60.2535141 384.689825,56.4068591 C387.965339,54.9391073 391.415537,53.9443862 394.938345,53.4398834 L395.144,53.411 Z M398.691024,53.0896554 C400.366951,53.0160905 402.05098,53.0524295 403.732472,53.2004635 C409.858649,53.7680964 415.089014,57.8787542 417.109343,63.7136374 C418.785588,68.7534253 416.387392,74.2488382 411.56101,76.4275232 C406.90264,78.5056084 401.470623,77.7216696 397.583693,74.4103424 C393.367439,70.152983 391.729935,63.9623138 393.286702,58.1653524 C393.460467,57.5455059 393.656774,56.9343999 393.874843,56.3330943 L393.889,56.293 L394.383664,56.198435 C395.289103,56.0298734 396.20047,55.8885461 397.116572,55.7748382 L397.183,55.766 L397.330238,55.4389525 C397.693247,54.6499069 398.121265,53.8846958 398.613521,53.1514715 L398.654,53.091 Z M413.895387,62.6635242 C410.483484,57.2224348 404.087339,54.4523335 397.804518,55.6947419 L397.804518,55.6947419 L397.183,55.766 L397.178645,55.7785504 C395.407348,59.8706655 395.358403,64.562374 397.136825,68.7447642 L397.289259,69.092094 C399.493499,73.5574401 404.578656,75.7816506 409.336218,74.3613455 C411.523641,73.8110635 413.364844,72.3332637 414.381285,70.3120358 C415.397344,67.8228343 415.218199,65.0029178 413.895387,62.6635242 Z M492.997,25.192 L493.467105,25.2891962 C494.671727,25.5251567 495.894702,25.6848729 497.129095,25.7656134 L497.186,25.768 L497.104417,25.8387816 C496.244025,26.5554267 495.311008,27.1942691 494.314231,27.7430245 L493.979623,27.9225896 C488.226211,30.738553 481.946335,32.3053497 475.549414,32.5208315 C468.537185,33.148242 461.503451,33.347967 454.477162,33.7216728 C440.559091,33.6952443 426.758587,36.2798073 413.785801,41.342364 C407.833055,43.70484 402.653592,47.6859847 398.828418,52.8392146 L398.828418,52.8392146 L398.654,53.091 L398.062951,53.1223904 C397.226083,53.1728969 396.391573,53.2508233 395.56075,53.3559457 L395.144,53.411 L395.215458,53.2719606 C397.185415,49.46659 400.08468,46.1922544 403.673313,43.7749083 L404.074875,43.5098575 C415.767838,36.2348242 429.163883,32.1828473 442.913206,31.7622088 C449.992428,31.1410268 457.100597,30.9114053 464.195119,30.5335473 C470.945862,30.4046911 477.674326,29.7137342 484.31129,28.4677848 C487.362373,28.0539511 490.245699,26.9718325 492.777319,25.337614 L492.997,25.192 Z M551.659626,0.41659879 C552.202953,0.434638287 552.685625,0.769914889 552.894046,1.27406006 C553.004372,1.54092221 553.027586,1.8290219 552.969719,2.10029501 C553.325965,2.43170054 553.430024,2.97894502 553.195479,3.43173067 C550.564934,7.82884759 548.305034,12.4476444 546.440319,17.2379707 C545.810969,18.9335107 543.120139,18.1556707 543.783109,16.4874307 C544.759717,13.9055328 545.902811,11.3962312 547.203725,8.97577234 L546.913128,9.26927339 C538.270608,17.5979976 527.36207,23.1657067 515.567547,25.2680329 C509.659682,26.3598533 503.620233,26.5376907 497.6588,25.7953733 L497.6588,25.7953733 L497.186,25.768 L497.388513,25.5970352 C498.138864,24.9447838 498.831056,24.2321371 499.458863,23.4677229 L499.563,23.337 L499.933859,23.3667745 C501.02627,23.4437487 502.123233,23.4761936 503.222085,23.4635664 L503.881601,23.4505771 C509.853594,23.5114668 515.799209,22.6470399 521.508734,20.887786 C531.92729,17.810774 541.235306,11.8261193 548.366388,3.66232819 L548.679,3.3 L533.018517,4.03863822 C532.235246,4.01287939 531.604047,3.40427923 531.532498,2.63571293 L531.525741,2.48983539 C531.525741,1.65374329 532.186291,0.968401322 533.018517,0.941032563 L533.018517,0.941032563 Z M488.071105,0.149606775 C491.400432,-0.303568803 494.788106,0.27855449 497.777897,1.81758022 C502.150541,4.66851759 504.33104,9.92291372 503.268336,15.0480104 C502.774483,18.0591289 501.526102,20.8469941 499.691261,23.1786579 L499.563,23.337 L499.27898,23.3152508 C498.188497,23.2204866 497.1031,23.0813016 496.025455,22.8982386 L495.892,22.874 L495.695134,23.0627462 C494.890379,23.8141979 494.029167,24.4989297 493.120343,25.1113549 L492.997,25.192 L492.951983,25.1834103 C488.497677,24.2262804 484.310241,22.2226735 480.745028,19.31255 L480.336438,18.9727515 C478.159455,16.9785426 476.872701,14.1889869 476.76583,11.2320253 C476.658959,8.2750637 477.740952,5.39919148 479.768248,3.25177994 C482.148671,1.3784653 485.050132,0.294400542 488.071105,0.149606775 Z M489.983682,3.05703771 C486.977529,2.8327823 483.991409,3.70239217 481.571239,5.50688669 C479.563407,7.52757337 478.931114,10.5470443 479.958472,13.2085475 C481.020256,16.1287319 483.196136,18.5043447 486.005522,19.8106829 C489.007751,21.1856587 492.156505,22.181362 495.379819,22.7831397 L495.892,22.874 L495.994253,22.7778352 C496.982381,21.8177797 497.880567,20.7545655 498.671536,19.5991039 L498.905593,19.249709 C501.357689,15.0908585 501.079597,9.85959035 498.200524,5.98647577 C495.982451,3.9117603 493.008115,2.85136118 489.983682,3.05703771 Z M550.480238,1.09591285 C549.935283,1.79802936 549.375095,2.48611973 548.800256,3.15978765 L548.679,3.3 L550.722152,3.20291383 C550.756814,3.15243035 550.791551,3.1019977 550.826363,3.05161606 L551.251,2.445 L550.480238,1.09591285 Z" id="Combined-Shape"></path>
            </g>
        </g>
    </g>
</svg>