<?xml version="1.0" encoding="UTF-8"?>
<svg width="193px" height="167px" viewBox="0 0 193 167" version="1.1" xmlns="http://www.w3.org/2000/svg" xmlns:xlink="http://www.w3.org/1999/xlink">
    <title>Path</title>
    <g id="Design" stroke="none" stroke-width="1" fill="none" fill-rule="evenodd">
        <g id="1_Home_Agency_1440" transform="translate(-155.000000, -1250.000000)" fill="#E7C4B2">
            <g id="pic" transform="translate(139.000000, 1174.000000)">
                <path d="M154.955778,85.1735156 C147.884994,78.2669975 138.050541,74.9881405 128.26461,76.2745437 C118.73597,77.6196104 110.271073,83.078952 105.096769,91.2163846 C102.142607,95.7792068 100.343048,100.996115 99.854222,106.41449 L101.162592,105.100104 C89.0530754,104.049853 76.8702338,105.960275 65.6581584,110.667644 C56.2425311,115.181636 49.5911433,123.991781 47.8119859,134.305926 C46.8841884,139.780114 48.0419334,145.404106 51.0555083,150.062025 L51.9266563,147.916848 C37.1432686,151.679872 24.8653035,161.976353 18.554351,175.90335 C15.7276917,182.968356 15.2324667,190.755949 17.1413109,198.123913 C19.0043748,204.893021 23.3245292,210.718284 29.2524941,214.45454 C35.570952,218.6306 43.4196107,219.755481 50.6512527,217.52144 L48.6464584,216.380652 C52.9738871,229.22203 64.0407674,238.599726 77.3865144,240.733993 C92.4409103,243.730096 108.06079,241.638505 121.804351,234.78619 C130.022795,230.908986 137.487097,225.59464 143.84761,219.09209 L142.656272,219.588085 C151.017106,220.105754 159.401315,219.068788 167.386327,216.529451 C174.771345,214.31925 181.778826,210.996771 188.169019,206.675689 C194.084953,202.767098 199.041577,197.565459 202.666999,191.461051 C205.95941,185.711562 207.406315,179.084433 206.810928,172.480986 C206.331068,165.168125 202.745933,158.413293 196.965389,153.930784 L196.965389,156.935685 C205.094125,150.715666 209.579245,140.827434 208.913386,130.594232 C208.132997,122.724254 204.249523,115.493381 198.126763,110.509968 C192.004002,105.526556 184.14969,103.203859 176.310856,104.058515 L177.535985,107.026216 C183.055509,101.719266 184.562874,93.4617088 181.27607,86.5375011 C177.824381,79.8038423 170.24808,76.2888015 162.897072,78.0105252 C158.846114,78.8139609 155.233625,81.0895287 152.752771,84.4005905 C152.30171,85.1881192 152.564279,86.192981 153.342465,86.6573665 C154.129175,87.0939994 155.119096,86.8338088 155.591214,86.0663061 C159.454533,81.5235301 165.712812,79.8445536 171.321329,81.8462177 C176.98379,84.062139 180.36066,89.9166382 179.453417,95.9448676 C179.122072,99.2652055 177.563836,102.340951 175.085315,104.566909 C174.60592,105.069563 174.467753,105.808771 174.733069,106.451462 C174.998385,107.094153 175.617104,107.519013 176.310444,107.534611 C185.399972,106.499377 194.392102,110.161874 200.188719,117.260241 C205.715065,124.323335 207.12643,133.782814 203.903667,142.159176 C202.25243,146.86959 199.224574,150.97173 195.214851,153.930784 C194.756899,154.208031 194.450165,154.679784 194.381863,155.211912 C194.313561,155.744041 194.49116,156.278337 194.864167,156.662888 C204.459327,165.216479 206.388561,179.516481 199.404933,190.320263 C195.73299,196.254741 190.731026,201.247884 184.796926,204.902508 C178.273735,209.069317 171.144645,212.194161 163.664786,214.165209 C159.622417,215.273244 155.481985,215.983395 151.302231,216.285587 C149.275184,216.417852 147.240308,216.405452 145.2112,216.339319 C144.217574,216.180788 143.207316,216.155768 142.207099,216.26492 C141.330107,216.730548 140.569396,217.388995 139.981839,218.191033 C134.716579,223.305521 128.715686,227.598241 122.17976,230.925698 C109.741664,237.574025 95.5441777,240.160603 81.5695909,238.324285 C69.5558892,237.209502 58.8893506,230.154541 53.1357142,219.517819 C52.5739974,218.222178 52.1233328,216.880899 51.7886078,215.508528 C51.5422246,214.643403 50.6501258,214.135876 49.7834014,214.36774 C37.6333322,217.784076 24.9196275,211.186026 20.6815346,199.264701 C18.4380343,192.637714 18.4452793,185.452141 20.7021389,178.829719 C22.938484,172.221925 26.9202745,166.346492 32.2232161,161.8295 C38.1998225,156.734836 45.1761942,152.955411 52.7009644,150.735751 C53.1342973,150.610065 53.4863092,150.292129 53.6561915,149.872992 C53.8260738,149.453856 53.7950897,148.979747 53.5721124,148.586441 C48.9390757,140.560665 49.6194981,130.518867 55.292568,123.195644 C61.7669601,114.851218 71.4166594,109.592014 81.9194512,108.683665 C88.2947112,107.808418 94.7334719,107.487583 101.163829,107.724742 C101.879463,107.709876 102.456437,107.132255 102.472611,106.41449 C103.366485,97.575412 107.954043,89.5306512 115.09684,84.2765918 C122.373741,79.0800804 131.538518,77.3010836 140.222909,79.3993104 C145.27044,80.540326 149.978847,82.8583753 153.966362,86.1655051 C154.243597,86.4126293 154.664823,86.4001921 154.927085,86.1371386 C155.189347,85.8740851 155.201747,85.4515873 154.955366,85.1735156 L154.955366,85.1735156 L154.955778,85.1735156 Z" id="Path"></path>
            </g>
        </g>
    </g>
</svg>