<?xml version="1.0" encoding="UTF-8"?>
<svg width="312px" height="164px" viewBox="0 0 312 164" version="1.1" xmlns="http://www.w3.org/2000/svg" xmlns:xlink="http://www.w3.org/1999/xlink">
    <title>block</title>
    <defs>
        <path d="M7.6916556,-1.21758623e-15 L208.308344,3.10752092e-16 C210.982901,-1.80555915e-16 211.952759,0.278476833 212.930537,0.801398111 C213.908315,1.32431939 214.675681,2.09168511 215.198602,3.06946289 C215.721523,4.04724067 216,5.01709938 216,7.6916556 L216,60.3083444 C216,62.9829006 215.721523,63.9527593 215.198602,64.9305371 C214.675681,65.9083149 213.908315,66.6756806 212.930537,67.1986019 C211.952759,67.7215232 210.982901,68 208.308344,68 L7.6916556,68 C5.01709938,68 4.04724067,67.7215232 3.06946289,67.1986019 C2.09168511,66.6756806 1.32431939,65.9083149 0.801398111,64.9305371 C0.278476833,63.9527593 9.10715735e-16,62.9829006 -1.56741927e-15,60.3083444 L2.07168062e-16,7.6916556 C-1.2037061e-16,5.01709938 0.278476833,4.04724067 0.801398111,3.06946289 C1.32431939,2.09168511 2.09168511,1.32431939 3.06946289,0.801398111 C4.04724067,0.278476833 5.01709938,7.07452665e-16 7.6916556,-1.21758623e-15 Z" id="path-1"></path>
        <filter x="-38.9%" y="-88.2%" width="177.8%" height="347.1%" filterUnits="objectBoundingBox" id="filter-2">
            <feOffset dx="0" dy="24" in="SourceAlpha" result="shadowOffsetOuter1"></feOffset>
            <feGaussianBlur stdDeviation="24" in="shadowOffsetOuter1" result="shadowBlurOuter1"></feGaussianBlur>
            <feColorMatrix values="0 0 0 0 0.334635417   0 0 0 0 0.117122396   0 0 0 0 0  0 0 0 0.0818897192 0" type="matrix" in="shadowBlurOuter1"></feColorMatrix>
        </filter>
    </defs>
    <g id="Design" stroke="none" stroke-width="1" fill="none" fill-rule="evenodd">
        <g id="1_Home_Agency_1440" transform="translate(-385.000000, -1203.000000)" fill-rule="nonzero">
            <g id="pic" transform="translate(135.000000, 1174.000000)">
                <g id="block" transform="translate(298.000000, 53.000000)">
                    <g id="Rectangle">
                        <use fill="black" fill-opacity="1" filter="url(#filter-2)" xlink:href="#path-1"></use>
                        <use fill="#FFFFFF" xlink:href="#path-1"></use>
                    </g>
                    <circle id="Oval" fill="#EF6D58" cx="35" cy="34" r="20"></circle>
                    <circle id="Oval" stroke="#FFFFFF" stroke-width="4" fill="#B550F8" cx="67" cy="34" r="22"></circle>
                    <circle id="Oval" stroke="#FFFFFF" stroke-width="4" fill="#F7CC47" cx="99" cy="34" r="22"></circle>
                    <path d="M133.563885,20 L190.436115,20 C191.327634,20 191.65092,20.0928256 191.976846,20.2671327 C192.302772,20.4414398 192.55856,20.6972284 192.732867,21.0231543 C192.907174,21.3490802 193,21.6723665 193,22.5638852 L193,31.4361148 C193,32.3276335 192.907174,32.6509198 192.732867,32.9768457 C192.55856,33.3027716 192.302772,33.5585602 191.976846,33.7328673 C191.65092,33.9071744 191.327634,34 190.436115,34 L133.563885,34 C132.672366,34 132.34908,33.9071744 132.023154,33.7328673 C131.697228,33.5585602 131.44144,33.3027716 131.267133,32.9768457 C131.092826,32.6509198 131,32.3276335 131,31.4361148 L131,22.5638852 C131,21.6723665 131.092826,21.3490802 131.267133,21.0231543 C131.44144,20.6972284 131.697228,20.4414398 132.023154,20.2671327 C132.34908,20.0928256 132.672366,20 133.563885,20 Z" id="Rectangle" fill="#F5DED1"></path>
                    <path d="M134,42 L179,42 C180.656854,42 182,43.3431458 182,45 C182,46.6568542 180.656854,48 179,48 L134,48 C132.343146,48 131,46.6568542 131,45 C131,43.3431458 132.343146,42 134,42 Z" id="Rectangle" fill="#F5DED1"></path>
                </g>
            </g>
        </g>
    </g>
</svg>