<?xml version="1.0" encoding="UTF-8"?>
<svg width="152px" height="48px" viewBox="0 0 152 48" version="1.1" xmlns="http://www.w3.org/2000/svg" xmlns:xlink="http://www.w3.org/1999/xlink">
    <title>logo</title>
    <g id="Design" stroke="none" stroke-width="1" fill="none" fill-rule="evenodd">
        <g id="1_Home_Agency_1440" transform="translate(-135.000000, -16.000000)" fill-rule="nonzero">
            <g id="logo" transform="translate(135.000000, 16.000000)">
                <g id="Agency" transform="translate(62.660000, 14.276000)" fill="#FFFFFF">
                    <path d="M0,17.724 L4.416,0 L10.308,0 L14.7,17.724 L10.884,17.724 L7.356,2.268 L7.38,2.268 L3.816,17.724 L0,17.724 Z M3.168,13.62 L3.168,10.716 L11.568,10.716 L11.568,13.62 L3.168,13.62 Z" id="Shape"></path>
                    <path d="M25.608,16.212 C26.392,16.292 27.078,16.442 27.666,16.662 C28.254,16.882 28.712,17.206 29.04,17.634 C29.368,18.062 29.532,18.632 29.532,19.344 C29.532,20.168 29.262,20.87 28.722,21.45 C28.182,22.03 27.392,22.472 26.352,22.776 C25.312,23.08 24.052,23.232 22.572,23.232 C20.388,23.232 18.698,22.918 17.502,22.29 C16.306,21.662 15.708,20.824 15.708,19.776 C15.708,19.48 15.742,19.214 15.81,18.978 C15.878,18.742 15.964,18.54 16.068,18.372 L19.452,18.864 C19.412,18.92 19.37,19.006 19.326,19.122 C19.282,19.238 19.26,19.384 19.26,19.56 C19.26,19.984 19.578,20.3 20.214,20.508 C20.85,20.716 21.672,20.82 22.68,20.82 C23.392,20.82 24.002,20.77 24.51,20.67 C25.018,20.57 25.406,20.424 25.674,20.232 C25.942,20.04 26.076,19.82 26.076,19.572 C26.076,19.212 25.902,18.976 25.554,18.864 C25.206,18.752 24.804,18.672 24.348,18.624 L19.524,18.132 C18.636,18.044 17.9,17.788 17.316,17.364 C16.732,16.94 16.44,16.368 16.44,15.648 C16.44,15.2 16.564,14.79 16.812,14.418 C17.06,14.046 17.344,13.738 17.664,13.494 C17.984,13.25 18.252,13.096 18.468,13.032 L20.364,13.992 C20.212,14.016 20.034,14.112 19.83,14.28 C19.626,14.448 19.524,14.644 19.524,14.868 C19.524,15.092 19.638,15.284 19.866,15.444 C20.094,15.604 20.512,15.712 21.12,15.768 L25.608,16.212 Z M26.868,4.98 L30.144,4.98 L28.812,9.876 C28.564,10.804 28.196,11.63 27.708,12.354 C27.22,13.078 26.57,13.648 25.758,14.064 C24.946,14.48 23.924,14.688 22.692,14.688 C21.396,14.688 20.274,14.488 19.326,14.088 C18.378,13.688 17.648,13.122 17.136,12.39 C16.624,11.658 16.368,10.792 16.368,9.792 C16.368,8.792 16.63,7.912 17.154,7.152 C17.678,6.392 18.394,5.8 19.302,5.376 C20.21,4.952 21.24,4.74 22.392,4.74 C23.264,4.74 24.062,4.882 24.786,5.166 C25.51,5.45 26.094,5.824 26.538,6.288 C26.982,6.752 27.212,7.264 27.228,7.824 L26.544,8.004 L26.868,4.98 Z M22.668,11.964 C23.196,11.964 23.66,11.878 24.06,11.706 C24.46,11.534 24.772,11.282 24.996,10.95 C25.22,10.618 25.332,10.216 25.332,9.744 C25.332,9.28 25.22,8.884 24.996,8.556 C24.772,8.228 24.46,7.976 24.06,7.8 C23.66,7.624 23.196,7.536 22.668,7.536 C22.164,7.536 21.71,7.626 21.306,7.806 C20.902,7.986 20.584,8.242 20.352,8.574 C20.12,8.906 20.004,9.308 20.004,9.78 C20.004,10.244 20.116,10.638 20.34,10.962 C20.564,11.286 20.876,11.534 21.276,11.706 C21.676,11.878 22.14,11.964 22.668,11.964 Z" id="Shape"></path>
                    <path d="M32.916,12.468 L32.916,10.008 L41.364,10.008 L41.004,10.632 C41.004,10.568 41.004,10.506 41.004,10.446 C41.004,10.386 41.004,10.328 41.004,10.272 C41.004,9.816 40.896,9.378 40.68,8.958 C40.464,8.538 40.13,8.194 39.678,7.926 C39.226,7.658 38.648,7.524 37.944,7.524 C37.24,7.524 36.634,7.674 36.126,7.974 C35.618,8.274 35.23,8.704 34.962,9.264 C34.694,9.824 34.56,10.5 34.56,11.292 C34.56,12.108 34.69,12.806 34.95,13.386 C35.21,13.966 35.598,14.412 36.114,14.724 C36.63,15.036 37.272,15.192 38.04,15.192 C38.536,15.192 38.964,15.146 39.324,15.054 C39.684,14.962 39.978,14.844 40.206,14.7 C40.434,14.556 40.608,14.396 40.728,14.22 C40.848,14.044 40.92,13.872 40.944,13.704 L44.616,13.704 C44.568,14.24 44.384,14.766 44.064,15.282 C43.744,15.798 43.3,16.262 42.732,16.674 C42.164,17.086 41.474,17.412 40.662,17.652 C39.85,17.892 38.924,18.012 37.884,18.012 C36.476,18.012 35.248,17.73 34.2,17.166 C33.152,16.602 32.34,15.822 31.764,14.826 C31.188,13.83 30.9,12.68 30.9,11.376 C30.9,10.056 31.194,8.898 31.782,7.902 C32.37,6.906 33.19,6.13 34.242,5.574 C35.294,5.018 36.512,4.74 37.896,4.74 C39.312,4.74 40.536,5.022 41.568,5.586 C42.6,6.15 43.396,6.938 43.956,7.95 C44.516,8.962 44.796,10.14 44.796,11.484 C44.796,11.684 44.792,11.876 44.784,12.06 C44.776,12.244 44.764,12.38 44.748,12.468 L32.916,12.468 Z" id="Path"></path>
                    <path d="M56.088,17.724 L56.088,12.312 C56.088,12.008 56.088,11.732 56.088,11.484 C56.088,11.236 56.088,11.012 56.088,10.812 C56.088,10.284 56.02,9.802 55.884,9.366 C55.748,8.93 55.504,8.58 55.152,8.316 C54.8,8.052 54.292,7.92 53.628,7.92 C53.052,7.92 52.554,8.052 52.134,8.316 C51.714,8.58 51.392,8.948 51.168,9.42 C50.944,9.892 50.832,10.436 50.832,11.052 L49.8,10.308 C49.8,9.204 50.04,8.236 50.52,7.404 C51,6.572 51.65,5.92 52.47,5.448 C53.29,4.976 54.2,4.74 55.2,4.74 C56.248,4.74 57.11,4.95 57.786,5.37 C58.462,5.79 58.966,6.374 59.298,7.122 C59.63,7.87 59.796,8.744 59.796,9.744 C59.796,10.152 59.796,10.608 59.796,11.112 C59.796,11.616 59.796,12.132 59.796,12.66 L59.796,17.724 L56.088,17.724 Z M47.112,17.724 L47.112,4.98 L50.832,4.98 L50.832,17.724 L47.112,17.724 Z" id="Shape"></path>
                    <path d="M69.012,18.012 C67.612,18.012 66.384,17.73 65.328,17.166 C64.272,16.602 63.454,15.816 62.874,14.808 C62.294,13.8 62.004,12.636 62.004,11.316 C62.004,9.98 62.294,8.822 62.874,7.842 C63.454,6.862 64.272,6.1 65.328,5.556 C66.384,5.012 67.612,4.74 69.012,4.74 C70.06,4.74 70.988,4.894 71.796,5.202 C72.604,5.51 73.28,5.916 73.824,6.42 C74.368,6.924 74.78,7.476 75.06,8.076 C75.34,8.676 75.48,9.272 75.48,9.864 C75.48,9.872 75.48,9.886 75.48,9.906 C75.48,9.926 75.48,9.944 75.48,9.96 L71.796,9.96 C71.796,9.912 71.794,9.866 71.79,9.822 C71.786,9.778 71.776,9.732 71.76,9.684 C71.696,9.348 71.556,9.032 71.34,8.736 C71.124,8.44 70.822,8.198 70.434,8.01 C70.046,7.822 69.564,7.728 68.988,7.728 C68.372,7.728 67.822,7.864 67.338,8.136 C66.854,8.408 66.472,8.81 66.192,9.342 C65.912,9.874 65.772,10.532 65.772,11.316 C65.772,12.084 65.912,12.746 66.192,13.302 C66.472,13.858 66.854,14.284 67.338,14.58 C67.822,14.876 68.372,15.024 68.988,15.024 C69.62,15.024 70.136,14.926 70.536,14.73 C70.936,14.534 71.236,14.27 71.436,13.938 C71.636,13.606 71.756,13.24 71.796,12.84 L75.48,12.84 C75.48,13.432 75.342,14.034 75.066,14.646 C74.79,15.258 74.382,15.816 73.842,16.32 C73.302,16.824 72.628,17.232 71.82,17.544 C71.012,17.856 70.076,18.012 69.012,18.012 Z" id="Path"></path>
                    <path d="M78.252,23.232 C77.852,23.232 77.494,23.218 77.178,23.19 C76.862,23.162 76.664,23.132 76.584,23.1 L76.584,20.28 C76.688,20.328 76.87,20.366 77.13,20.394 C77.39,20.422 77.668,20.436 77.964,20.436 C78.356,20.436 78.71,20.358 79.026,20.202 C79.342,20.046 79.614,19.826 79.842,19.542 C80.07,19.258 80.248,18.924 80.376,18.54 L80.592,17.892 L76.2,4.98 L80.076,4.98 L82.848,15.432 L82.416,15.432 L85.08,4.98 L88.908,4.98 L84.528,18.36 C84.2,19.368 83.796,20.236 83.316,20.964 C82.836,21.692 82.196,22.252 81.396,22.644 C80.596,23.036 79.548,23.232 78.252,23.232 Z" id="Path"></path>
                </g>
                <path d="M24,3.09016994 L43.8864301,17.5385072 L36.2904897,40.9164079 L11.7095103,40.9164079 L4.11356987,17.5385072 L24,3.09016994 Z" id="Polygon" stroke="#EF6D58" stroke-width="5"></path>
                <polygon id="Polygon" fill="#EF6D58" points="23.5 14 32.5350369 20.5643386 29.0839599 31.1856614 17.9160401 31.1856614 14.4649631 20.5643386"></polygon>
            </g>
        </g>
    </g>
</svg>